<svg xmlns="http://www.w3.org/2000/svg" xml:space="preserve" id="_x32_" width="75" height="75" version="1.1"
    viewBox="0 0 512 512">
    <style>
        path {
            fill: #000;
        }

        @media (prefers-color-scheme: dark) {
            path {
                fill: #FFF;
            }
        }
    </style>
    <path
        d="M117.142 38.652c10.102 23.135 34.208 103.085 115.82 233.452 4.04 6.46 27.29-5.884 17.862-18.704 0 0-66.382-72.251-122.799-219.141 4.408-3.819 7.056-9.75 6.658-16.202C134.01 7.404 125.255-.67 115.153.042c-10.102.719-17.74 9.933-17.066 20.602.658 10.485 9.152 18.445 19.055 18.008z"
        class="st0"></path>
    <path
        d="M156.142 79.182c.382 5.954 5.266 10.454 10.913 10.056 5.632-.398 9.902-5.548 9.52-11.495-.368-5.954-5.25-10.462-10.898-10.072-5.647.399-9.918 5.549-9.535 11.511zM109.719 102.432c.383 5.954 5.266 10.461 10.913 10.056 5.633-.398 9.903-5.548 9.536-11.502-.382-5.961-5.265-10.454-10.913-10.064-5.633.398-9.903 5.548-9.536 11.51zM159.31 51.663c6.704-.467 11.786-6.59 11.341-13.676-.459-7.079-6.26-12.443-12.979-11.961-6.704.467-11.785 6.597-11.342 13.676.46 7.086 6.261 12.443 12.98 11.961zM98.332 78.432c6.704-.482 11.785-6.604 11.342-13.683-.459-7.087-6.26-12.444-12.98-11.97-6.704.467-11.785 6.597-11.341 13.683.459 7.088 6.259 12.445 12.979 11.97zM488.868 192.155c-14.594-27.796-35.043-23.426-37.094-28.737-2.38-22.185-31.836-26.479-48.818-26.479-47.166 0-90.848 37.132-118.736 69.948-8.265 9.727-15.107 19.056-20.785 27.918-2.602 3.237-1.316 7.339-.75 8.089 2.694 1.546 8.311-.673 15.842-2.242 9.107-1.883 22.376-6.489 41.142-12.237 18.765-5.755 40.055-10.676 58.407-12.666 9.168-1.025 17.556-1.362 24.382-1.232 6.827.1 12.062.666 14.908 1.034 5.709.718 9.474 2.663 11.526 4.752 2.096 2.089 2.54 4.278 2.081 5.946-.475 1.683-1.975 3.268-4.5 4.224-2.526.942-6.062 1.278-11.036.628a124.673 124.673 0 0 0-13.255-.918c-6.153-.114-13.852.199-22.408 1.156-17.112 1.852-37.515 6.536-55.637 12.099-18.168 5.556-32.525 10.929-39.703 16.278-8.602 6.413-13.653 8.648-15.138 16.124-1.086 3.987 5.388 5.426 8.877 5.426 36.918 0 127.422 12.038 161.615 34.14.902.559 1.729 1.156 2.587 1.714 29.708-16.14 47.585-43.247 46.437-78.534-1.313-14.61 13.411-21 .056-46.431zM219.814 333.39c2.112-10.454 5.571-19.546 10.27-27.168 4.898-7.271 4.438-13.554-4.699-8.013-3.689 2.242-16.607 12.084-22.025 15.658-5.434 3.574-11.449 8.487-17.571 15.129a157.898 157.898 0 0 0-16.974 22.026c-5.036 7.852-9.245 16.056-12.521 23.77-6.597 15.466-9.536 28.874-10.622 33.856-2.096 9.987-7.01 13.232-10.729 12.704-3.597-.513-7.745-5.357-5.479-16.278 1.194-5.38 4.362-19.921 11.601-36.933 3.628-8.479 8.25-17.533 13.837-26.25 5.54-8.701 12.015-17.035 18.78-24.351 13.546-14.572 24.826-24.276 32.158-30.168 4.591-3.689 11.434-9.466 2.54-9.421-29.234-.688-109.59 7.936-143.63 66.145-20.938 35.8-19.102 58.063-8.495 69.741 6.015 6.589 4.683 33.236 12.352 54.948 5.846 16.599 16.913 30.32 40.529 30.068 21.444-.214 39.076-4.461 57.045 7.592 20.54 13.767 53.831 1.293 73.039-30.245 2.465-4.064 4.73-8.312 6.842-12.704-22.62-40.773-33.885-91.941-26.248-130.106z"
        class="st0"></path>
    <path
        d="M190.962 264.919c27.046 1.148-5.035-9.199-17.984-14.166-15.811-6.069-38.54-15.489-53.172-20.693-14.618-5.288-26.678-8.128-31.179-9.03-8.969-1.837-11.999-5.694-11.693-8.716.306-2.901 4.592-6.367 14.402-4.378 4.883.986 17.74 4.033 32.954 9.542 15.245 5.411 32.862 13.148 48.398 20.878 12.076 6.016 21.52 10.316 28.867 12.895-26.341-39.948-46.285-74.868-61.284-104.103-13.041-6.076-26.143-8.073-38.418-3.138-20.433 8.182-25.209 22.515-28.132 29.043-2.067 5.311-41.801 1.454-50.142 31.722-6.75 24.557 6.949 24.228-1.332 49.33-7.132 11.824-11.357 68.624 26.281 81.84.581.207 9.459-15.505 10.101-15.352 39.856-44.677 104.584-53.837 132.333-55.674zM240.906 212.764c4.806 10.178 3.536 3.313 4.591-11.908 1.026-14.388 7.761-51.023 11.395-63.918 4.064-14.426 9.987-28.706 11.977-33.918 2.924-7.653 6.406-9.857 9.2-8.97 2.831.904 6.268 5.059 3.589 12.375-1.729 4.73-8.02 18.406-12.252 32.181-3.842 12.505-9.597 40.216-10.607 54.405-1.026 14.655-3.016 28.79 2.494 20.242 5.74-6.36 12.322-12.98 17.893-19.829 1.837-2.25 3.704-4.561 5.586-6.895 19.087-23.678 72.696-68.004 105.129-65.563 0-28.721-30.704-40.155-58.774-42.504-12.069-1.01-9.153-26.77-48.007-26.794-37.882-.022-43.43 30.781-77.662 33.858-15.084 1.354-22.576 21.344-10.454 44.632 23.876 47.472 30.397 57.772 45.902 82.606zM419.142 320.594c-30.995-20.372-156.456-36.206-153.15-27.29 2.372 6.834 11.433 15.161 28.56 32.915 25.607 26.487 56.356 58.836 63.397 66.428 7.086 7.56 6.23 14.288 3.398 17.356-2.847 3.069-8.984 4.034-15.994-3.467-6.979-7.514-37.652-39.771-63.229-66.243-21.826-22.638-36.06-53.624-43.866-26.892-18.429 46.308-1.056 122.898 42.489 168.296 25.836 26.938 52.208 29.532 68.294 10.178 14.096-16.936 21.061-6.55 41.433-11.962 22.392-5.954 47.571-30.65 49.07-49.002 1.975-24.046 1.684-39.711 5.771-47.999 7.24-14.602 8.235-39.711-26.173-62.318z"
        class="st0"></path>
</svg>
